<svg version="1.1" viewBox="0 0 470 350" xmlns="http://www.w3.org/2000/svg" xmlns:xlink="http://www.w3.org/1999/xlink">
 <defs>
  <linearGradient id="linearGradient3284">
   <stop stop-color="#fff" offset="0"/>
   <stop stop-color="#a8a8a8" offset=".78378"/>
   <stop stop-color="#787878" offset="1"/>
  </linearGradient>
  <linearGradient id="linearGradient3236">
   <stop stop-color="#2d1300" offset="0"/>
   <stop stop-color="#bf5902" offset="1"/>
  </linearGradient>
  <radialGradient id="radialGradient3234" cx="293.72" cy="324.29" r="143.18" gradientTransform="matrix(1.6026 .97666 -.33928 1.4957 -69.339 -509.08)" gradientUnits="userSpaceOnUse">
   <stop stop-color="#fff" offset="0"/>
   <stop stop-color="#ff96a6" offset=".78378"/>
   <stop stop-color="#cc3a62" offset="1"/>
  </radialGradient>
  <radialGradient id="radialGradient3244" cx="335.18" cy="393.64" r="149.9" gradientTransform="matrix(1.4178 .018205 .057511 1.5689 -189.89 -243.16)" gradientUnits="userSpaceOnUse" xlink:href="#linearGradient3236"/>
  <radialGradient id="radialGradient3254" cx="341.6" cy="341.26" r="143.91" gradientTransform="matrix(1.322 -.15006 .10494 1.0005 -149.9 65.032)" gradientUnits="userSpaceOnUse">
   <stop stop-color="#fff" offset="0"/>
   <stop stop-color="#a8a8a8" offset=".78378"/>
   <stop stop-color="#515151" offset="1"/>
  </radialGradient>
  <radialGradient id="radialGradient3272" cx="407.38" cy="293.96" r="26.256" fx="405.11" fy="291.4" gradientTransform="matrix(.8832 -1.0446e-6 1.873e-6 1.5633 47.579 -165.58)" gradientUnits="userSpaceOnUse" xlink:href="#linearGradient3284"/>
  <radialGradient id="radialGradient3274" cx="271.67" cy="298.99" r="26.256" gradientTransform="matrix(-1.3043 -4.8802e-7 6.6867e-7 -1.7874 680.11 819.37)" gradientUnits="userSpaceOnUse">
   <stop stop-color="#3f3f3f" offset="0"/>
   <stop stop-color="#9b9b9b" offset=".72973"/>
   <stop stop-color="#d9d9d9" offset="1"/>
  </radialGradient>
  <linearGradient id="linearGradient3298" x1="247.94" x2="524.65" y1="355.22" y2="336.5" gradientUnits="userSpaceOnUse" xlink:href="#linearGradient3284"/>
  <linearGradient id="linearGradient3306" x1="545.23" x2="293.12" y1="313.08" y2="296.18" gradientUnits="userSpaceOnUse" xlink:href="#linearGradient3284"/>
 </defs>
 <g transform="translate(-134.27 -247.01)">
  <g stroke-linejoin="round">
   <path d="m540.16 326.22c-10.78 0.11024-22.817 1.2902-35.285 3.6465-23.134 4.372-42.595 11.821-54.1 19.861 1.2112 2.0246 2.3681 4.0837 3.4199 6.2012 11.575-5.6431 27.858-10.856 46.477-14.375 14.51-2.7422 28.376-4.0731 40.211-4.1055 19.725-0.054 33.809 3.5018 35.84 10.158 1.3008 4.2644-2.6059 9.1616-10.164 13.973 12.792-6.989 19.782-14.808 17.693-21.656-2.7475-9.0073-20.376-13.946-44.092-13.703z" fill="url(#linearGradient3298)"/>
   <path d="m543.42 323.02c-12.047 0.1193-25.487 1.4335-39.389 4.0605-22.754 4.3001-42.364 11.295-55.514 19.057 0.78229 1.1787 1.537 2.3752 2.2637 3.5898 11.505-8.0402 30.965-15.489 54.1-19.861 12.468-2.3563 24.505-3.5362 35.285-3.6465 23.715-0.24252 41.344 4.6959 44.092 13.703 2.089 6.8482-4.9018 14.667-17.693 21.656-11.318 7.2043-30.905 14.213-54.105 18.598-12.33 2.3301-24.049 3.5375-34.586 3.8926 12.788 0.0844 27.258-1.1865 42.311-4.0312 44.484-8.4067 77.014-27.112 72.559-41.719-3.0633-10.042-22.819-15.561-49.322-15.299z"/>
   <path d="m536.4 340.52c-10.268 0.031-22.309 1.1928-34.941 3.5801-19.311 3.6494-35.709 9.3588-45.684 15.312 2.9278 6.598 5.0649 13.581 6.2812 20.875 12.324 1.7581 30.267 0.99266 49.627-2.666 33.685-6.3659 58.608-18.998 55.779-28.27-1.7676-5.7948-13.95-8.8837-31.062-8.832z" fill="url(#radialGradient3244)"/>
   <path d="m540.89 337.44c-11.835 0.0324-25.701 1.3633-40.211 4.1055-18.619 3.5186-34.902 8.7319-46.477 14.375 0.56664 1.1407 1.0547 2.3219 1.5723 3.4883 9.9744-5.9537 26.373-11.663 45.684-15.312 12.632-2.3872 24.674-3.5491 34.941-3.5801 17.113-0.0517 29.295 3.0372 31.062 8.832 2.8282 9.2717-22.094 21.904-55.779 28.27-19.36 3.6587-37.303 4.4241-49.627 2.666 0.20302 1.2175 0.38178 2.4424 0.5332 3.6758 13.591 0.91259 31.176-0.25796 49.871-3.791 38.694-7.3124 67.518-21.92 64.27-32.57-2.0304-6.6564-16.115-10.212-35.84-10.158z"/>
   <path d="m198.38 328.21c-23.715-0.24252-41.344 4.6959-44.092 13.703-3.9825 13.056 24.83 29.667 64.514 37.244-33.894-7.7419-58.058-20.784-55.076-30.561 2.0304-6.6564 16.115-10.212 35.84-10.158 11.835 0.0324 25.701 1.3653 40.211 4.1074 17.754 3.3553 33.378 8.2517 44.832 13.592 0.80526-1.6379 1.6847-3.2342 2.584-4.8184-11.573-7.8874-30.775-15.163-53.527-19.463-12.468-2.3563-24.505-3.5362-35.285-3.6465z" fill="url(#linearGradient3306)"/>
   <path d="m195.13 325.01c-26.504-0.26246-46.259 5.2564-49.322 15.299-4.4557 14.607 28.075 33.312 72.559 41.719 21.544 4.0715 41.941 4.9639 57.799 3.168 5e-3 -0.0466 7e-3 -0.094 0.0117-0.14063-13.347 0.70958-30.246-0.49991-48.178-3.8887-3.1752-0.60005-6.1634-1.3177-9.1934-2.0098-39.683-7.5773-68.496-24.188-64.514-37.244 2.7475-9.0073 20.376-13.946 44.092-13.703 10.78 0.11024 22.817 1.2902 35.285 3.6465 22.752 4.2998 41.954 11.575 53.527 19.463 0.69077-1.2169 1.4305-2.4013 2.1758-3.584-13.141-7.6049-32.483-14.436-54.854-18.664-13.901-2.6271-27.342-3.9412-39.389-4.0606z"/>
   <path d="m204.06 341.52c-17.113-0.0517-29.295 3.0392-31.062 8.834-2.8282 9.2717 22.094 21.902 55.779 28.268 18.484 3.4932 35.674 4.3468 47.92 2.8887 1.1653-7.6987 3.3244-15.073 6.3828-22.014-10.083-5.6189-25.762-10.935-44.078-14.396-12.632-2.3872-24.674-3.5491-34.941-3.5801z" fill="url(#radialGradient3244)"/>
   <path d="m199.56 338.44c-19.725-0.054-33.809 3.5018-35.84 10.158-3.2487 10.65 25.576 25.258 64.27 32.57 17.932 3.3888 34.831 4.5982 48.178 3.8887 0.13059-1.1964 0.34063-2.3688 0.51953-3.5508-12.246 1.4582-29.436 0.60453-47.92-2.8887-33.685-6.366-58.608-18.996-55.779-28.268 1.7676-5.7948 13.95-8.8857 31.062-8.834 10.268 0.031 22.309 1.1928 34.941 3.5801 18.316 3.4614 33.996 8.7775 44.078 14.396 0.49616-1.126 0.99139-2.2514 1.5332-3.3535-11.454-5.3401-27.078-10.237-44.832-13.592-14.51-2.7422-28.376-4.075-40.211-4.1074z"/>
  </g>
  <g fill-rule="evenodd">
   <path d="m414.61 260.56c-0.27578 6e-3 -0.48894 0.0236-0.63281 0.0449-1.3452 0.19987-1.4874 0.42519-1.6894 0.80859-0.2021 0.38341-0.38089 1.4491-0.1875 3.1699 0.38678 3.4417 2.028 9.0104 3.2246 15.984 1.5649 9.1208 2.2646 20.822-1.7051 34.395 8.7217 4.485 16.587 10.278 23.391 17.07 7.8073-9.7077 11.545-24.136 6.3828-42.213-4.1503-14.533-10.784-21.819-16.707-25.553-5.1831-3.2667-10.146-3.7515-12.076-3.707z" fill="url(#radialGradient3272)"/>
   <path d="m416.01 255.54c-1.1003-0.045-2.037 0.0122-2.7695 0.12109-2.3133 0.34372-4.3858 1.547-5.375 3.4238-0.98916 1.8769-0.97663 3.9029-0.73437 6.0586 0.48452 4.3114 2.126 9.6296 3.2656 16.271 1.4623 8.5228 2.1708 19.069-1.334 31.438 1.5292 0.68699 3.0736 1.3487 4.5566 2.1113 3.9697-13.572 3.27-25.274 1.7051-34.395-1.1966-6.974-2.8378-12.543-3.2246-15.984-0.19339-1.7209-0.0146-2.7865 0.1875-3.1699 0.20206-0.3834 0.34424-0.60872 1.6894-0.80859 1.1509-0.171 6.7855-0.0713 12.709 3.6621 5.9235 3.7334 12.557 11.02 16.707 25.553 5.1623 18.076 1.4245 32.505-6.3828 42.213 1.1612 1.1593 2.281 2.3548 3.377 3.5723 9.0726-11.037 13.448-27.431 7.8144-47.158-4.4194-15.475-11.842-23.992-18.85-28.408-5.2557-3.3125-10.041-4.3651-13.342-4.5z"/>
   <path d="m325.5 260.56c-1.9309-0.0444-6.895 0.44032-12.078 3.707-5.9235 3.7334-12.557 11.02-16.707 25.553-5.0397 17.647-1.6003 31.822 5.8301 41.518 6.923-6.7726 14.951-12.489 23.799-16.902-3.7993-13.347-3.1051-24.865-1.5606-33.867 1.1966-6.974 2.8398-12.543 3.2266-15.984 0.19339-1.7209 0.0126-2.7865-0.18945-3.1699-0.20206-0.3834-0.34229-0.60872-1.6875-0.80859-0.14386-0.0214-0.35697-0.0386-0.63281-0.0449z" fill="url(#radialGradient3274)"/>
   <path d="m324.09 255.54c-3.3009 0.13492-8.0861 1.1875-13.342 4.5-7.0077 4.4167-14.428 12.933-18.848 28.408-5.5097 19.293-1.4388 35.39 7.2285 46.414 1.1054-1.2026 2.2385-2.3792 3.4082-3.5234-7.4303-9.6959-10.87-23.87-5.8301-41.518 4.1503-14.533 10.784-21.819 16.707-25.553 5.9235-3.7334 11.56-3.8331 12.711-3.6621 1.3452 0.19987 1.4854 0.42519 1.6875 0.80859 0.20207 0.38341 0.38284 1.4491 0.18945 3.1699-0.38679 3.4417-2.03 9.0104-3.2266 15.984-1.5446 9.0021-2.2388 20.52 1.5606 33.867 1.4914-0.74395 3.0062-1.4492 4.543-2.1172-3.3364-12.141-2.6172-22.503-1.1758-30.904 1.1396-6.6418 2.783-11.96 3.2676-16.271 0.24226-2.1557 0.25479-4.1817-0.73437-6.0586-0.98916-1.8769-3.0636-3.0801-5.377-3.4238-0.73257-0.10885-1.6692-0.16606-2.7695-0.12109z"/>
  </g>
  <g stroke-linejoin="round">
   <path d="m369.46 309.23c-49.043 0-88.746 38.165-88.746 85.309 0 12.275 2.7133 23.93 7.5606 34.473 14.361-6.1846 30.586-10.865 48.152-13.518-4.8354-7.1271-7.9023-17.35-7.9023-28.898 0-22.059 11.175-39.309 24.533-39.309 7.1133 0 13.55 4.9728 18.061 12.883 4.4256-6.8565 10.491-11.037 17.094-11.037 13.254 0 24.346 16.832 24.346 38.371 0 11.1-2.9517 20.942-7.6211 27.883 16.769 2.4707 32.34 6.7776 46.248 12.48 4.5192-10.237 7.0215-21.5 7.0215-33.328 0-47.144-39.703-85.309-88.746-85.309z" fill="url(#radialGradient3254)"/>
   <path d="m369.46 304.33c-51.799 0-93.846 40.418-93.846 90.211 0 12.983 2.8808 25.317 8.0254 36.475 1.501-0.70184 3.088-1.3359 4.6348-2.002-4.8472-10.542-7.5606-22.198-7.5606-34.473 0-47.144 39.703-85.309 88.746-85.309 49.043 0 88.746 38.165 88.746 85.309 0 11.829-2.5023 23.091-7.0215 33.328 1.5704 0.64394 3.1168 1.3061 4.6426 1.9863 4.8112-10.849 7.4785-22.783 7.4785-35.314 0-49.793-42.046-90.211-93.846-90.211z"/>
   <path d="m388.21 355.98c-5.7768 0-10.922 3.5749-14.639 9.2637 0.89415 2.2026 1.704 4.5025 2.3125 6.9902 1.4757-1.2449 3.2282-1.9705 5.1113-1.9707 5.2414-9.4e-4 9.4906 5.5898 9.4902 12.486-4.5e-4 6.8958-4.2494 12.485-9.4902 12.484-1.374-1.2e-4 -2.6786-0.38673-3.8574-1.0781-0.66506 5.5089-2.0524 10.562-3.9746 14.955 0.87891 1.4237 1.8421 2.7248 2.8828 3.8828 7.761 0.16127 15.369 0.68897 22.771 1.5723 6.0873-5.5642 10.088-15.737 10.088-27.062 0-17.063-9.0727-31.523-20.695-31.523z" fill="#fff"/>
   <path d="m388.21 349.13c-6.6032 0-12.668 4.1806-17.094 11.037 0.90139 1.5807 1.7219 3.2683 2.4551 5.0742 3.7165-5.6887 8.8619-9.2637 14.639-9.2637 11.623 0 20.695 14.461 20.695 31.523 0 11.326-4.0006 21.498-10.088 27.062 2.0564 0.24537 4.093 0.52208 6.1172 0.82032 4.6694-6.9409 7.6211-16.783 7.6211-27.883 0-21.539-11.092-38.371-24.346-38.371zm-15.047 59.979c-0.5808 1.3273-1.2012 2.6069-1.877 3.8047 1.5964 1e-3 3.1759 0.0452 4.7598 0.0781-1.0407-1.158-2.0039-2.4591-2.8828-3.8828z"/>
   <path d="m381 370.26c-1.8831 1.7e-4 -3.6356 0.72583-5.1113 1.9707 1.0844 4.4337 1.7051 9.2592 1.7051 14.361 0 2.5943-0.15653 5.12-0.45117 7.5606 1.1789 0.69139 2.4834 1.078 3.8574 1.0781 5.2408 9.5e-4 9.4898-5.5886 9.4902-12.484 3.7e-4 -6.8965-4.2489-12.487-9.4902-12.486z" stroke-width="5"/>
   <path d="m353.06 354.19c-11.741 0-20.912 14.857-20.912 32.402 0 11.803 4.1542 22.382 10.445 28.047 7.3374-0.90016 14.878-1.4484 22.572-1.6387 5.3643-5.9335 8.8086-15.663 8.8086-26.408 0-17.545-9.1736-32.402-20.914-32.402zm10.516 16.777c5.2408-9.4e-4 9.4898 5.5886 9.4902 12.484 3.7e-4 6.8965-4.2489 12.487-9.4902 12.486-5.2406-4.7e-4 -9.4886-5.5908-9.4883-12.486 4.5e-4 -6.8948 4.2483-12.484 9.4883-12.484z" fill="#fff"/>
   <path d="m353.06 347.29c-13.358 0-24.533 17.25-24.533 39.309 0 11.548 3.067 21.771 7.9023 28.898 2.0397-0.30807 4.0912-0.59726 6.1641-0.85156-6.2911-5.6654-10.445-16.244-10.445-28.047 0-17.545 9.1716-32.402 20.912-32.402 11.74 0 20.914 14.857 20.914 32.402 0 10.745-3.4443 20.475-8.8086 26.408 1.9646-0.0486 3.932-0.0918 5.916-0.0918 0.0701 0 0.13892 4e-3 0.20899 4e-3 3.9029-6.9181 6.3027-16.101 6.3027-26.32 1e-5 -22.059-11.175-39.309-24.533-39.309z"/>
   <path d="m371.08 416.82c-75.979 0-137.51 37.534-137.51 83.889 0 32.962 31.125 61.449 76.42 75.168-17.117-8.0927-31.156-20.543-39.004-38.168-0.56181-1.261 5e-3 -2.7387 1.2656-3.3008 0.31538-0.14039 0.64403-0.21075 0.96875-0.2168 0.97418-0.0181 1.911 0.53818 2.332 1.4844 15.497 34.802 57.451 48.738 99.27 46.816 41.819-1.9214 82.742-20.018 95.357-46.863 0.28176-0.6002 0.79042-1.0639 1.4141-1.2891 0.62347-0.22437 1.3105-0.19206 1.9102 0.0898 1.2497 0.58728 1.7866 2.0765 1.1992 3.3262-8.6974 18.508-28.473 32.462-52.545 40.848 50.652-12.367 86.42-42.559 86.42-77.895 0-46.355-61.523-83.889-137.5-83.889zm62.207 12.289c0.17873-4e-3 0.35651-4e-3 0.53321 2e-3 1.0471 0.0359 2.056 0.25701 3.002 0.67578 6.0537 2.6802 7.8577 12.726 3.3223 22.971-4.5354 10.244-13.185 15.663-19.238 12.982-6.0538-2.6802-7.8577-12.726-3.3223-22.971 3.7072-8.3735 10.163-13.523 15.703-13.66zm-127.8 1.125c5.8057 0.0686 12.25 6.1416 15.131 15.512 3.2921 10.709 0.31259 20.471-6.0156 22.416-6.3282 1.9454-14.276-4.4573-17.568-15.166-3.2921-10.709-0.3126-20.471 6.0156-22.416 0.79103-0.24318 1.6081-0.3555 2.4375-0.3457z" fill="url(#radialGradient3234)"/>
   <path d="m371.08 412.91c-79.439 0-143.91 39.33-143.91 87.795s64.468 87.797 143.91 87.797c79.439 0 143.9-39.332 143.9-87.797s-64.464-87.795-143.9-87.795zm0 3.9062c75.979 0 137.5 37.534 137.5 83.889 0 35.336-35.768 65.528-86.42 77.895-14.622 5.0935-30.825 8.1368-47.105 8.8848-22.777 1.0465-45.862-2.5332-65.062-11.611-45.295-13.719-76.42-42.206-76.42-75.168 0-46.355 61.527-83.889 137.51-83.889z"/>
   <path d="m306.86 436.84c-0.60541-2e-3 -1.2089 0.0844-1.8047 0.26758-4.766 1.4652-6.5086 8.3682-4.5293 14.807s7.2985 11.172 12.064 9.707 6.5067-8.3702 4.5274-14.809c-1.7319-5.6336-6.02-9.9604-10.258-9.9727z"/>
   <path d="m305.48 430.23c-0.82939-0.01-1.6465 0.10252-2.4375 0.3457-6.3282 1.9454-9.3077 11.707-6.0156 22.416 3.2921 10.709 11.24 17.111 17.568 15.166 6.3282-1.9454 9.3077-11.707 6.0156-22.416-2.8806-9.3701-9.3251-15.443-15.131-15.512zm1.377 6.6133c4.2379 0.0123 8.5259 4.339 10.258 9.9727 1.9793 6.4384 0.23859 13.343-4.5274 14.809s-10.085-3.2686-12.064-9.707-0.23665-13.341 4.5293-14.807c0.59574-0.18315 1.1993-0.26933 1.8047-0.26758z"/>
   <path d="m431.39 435.52c-3.9693 0.10086-8.2415 3.7262-10.457 8.7305-2.7268 6.1592-1.8131 13.22 2.7461 15.238s10.4-2.0518 13.127-8.2109c2.7268-6.1592 1.8131-13.22-2.7461-15.238-0.85485-0.37847-1.7539-0.54281-2.6699-0.51953z"/>
   <path d="m433.29 429.11c-5.5404 0.13762-11.996 5.2867-15.703 13.66-4.5354 10.244-2.7315 20.291 3.3223 22.971 6.0537 2.6802 14.703-2.7382 19.238-12.982 4.5354-10.244 2.7315-20.291-3.3223-22.971-0.9459-0.41877-1.9549-0.63992-3.002-0.67578-0.1767-6e-3 -0.35448-6e-3 -0.53321-2e-3zm-1.9023 6.4102c0.91599-0.0233 1.8151 0.14106 2.6699 0.51953 4.5592 2.0185 5.4729 9.0791 2.7461 15.238-2.7268 6.1592-8.5677 10.229-13.127 8.2109s-5.4729-9.0791-2.7461-15.238c2.2156-5.0043 6.4877-8.6296 10.457-8.7305z"/>
   <path d="m363.57 370.97c-5.24 4.8e-4 -9.4878 5.5896-9.4883 12.484-3.7e-4 6.8955 4.2477 12.486 9.4883 12.486 5.2414 9.5e-4 9.4906-5.5898 9.4902-12.486-4.5e-4 -6.8958-4.2494-12.485-9.4902-12.484z" stroke-width="5"/>
  </g>
  <path d="m471.6 534.34a2.5 2.5 0 0 0-1.4141 1.2891c-12.615 26.845-53.539 44.942-95.357 46.863-41.819 1.9214-83.772-12.014-99.27-46.816a2.5 2.5 0 0 0-3.3008-1.2676 2.5 2.5 0 0 0-1.2656 3.3008c16.652 37.396 60.985 51.759 104.07 49.779 43.081-1.9794 85.67-19.982 99.65-49.732a2.5 2.5 0 0 0-1.1992-3.3262 2.5 2.5 0 0 0-1.9102-0.0898z" fill-rule="evenodd" stroke-linecap="round"/>
 </g>
</svg>
